<svg viewBox="0 0 120 120" fill="none" xmlns="http://www.w3.org/2000/svg">
  <defs>
    <linearGradient id="crab-body" x1="0%" y1="0%" x2="100%" y2="100%">
      <stop offset="0%" stop-color="#e63946"/>
      <stop offset="100%" stop-color="#c1121f"/>
    </linearGradient>
    <linearGradient id="crab-claw" x1="0%" y1="0%" x2="100%" y2="100%">
      <stop offset="0%" stop-color="#e63946"/>
      <stop offset="100%" stop-color="#9d0208"/>
    </linearGradient>
  </defs>
  <!-- Body -->
  <ellipse cx="60" cy="64" rx="30" ry="26" fill="url(#crab-body)"/>
  <!-- Left claw -->
  <path d="M30 50 Q10 48 8 62 Q6 74 24 70 Q30 66 30 54 Z" fill="url(#crab-claw)"/>
  <!-- Right claw -->
  <path d="M90 50 Q110 48 112 62 Q114 74 96 70 Q90 66 90 54 Z" fill="url(#crab-claw)"/>
  <!-- Eyes -->
  <rect x="44" y="42" width="7" height="12" rx="3.5" fill="url(#crab-body)"/>
  <rect x="69" y="42" width="7" height="12" rx="3.5" fill="url(#crab-body)"/>
  <circle cx="47.5" cy="44" r="4" fill="#1a1a1a"/>
  <circle cx="72.5" cy="44" r="4" fill="#1a1a1a"/>
  <circle cx="48" cy="43" r="1" fill="#fafafa"/>
  <circle cx="73" cy="43" r="1" fill="#fafafa"/>
  <!-- Legs left -->
  <path d="M34 82 L22 96" stroke="url(#crab-claw)" stroke-width="4" stroke-linecap="round"/>
  <path d="M38 86 L32 98" stroke="url(#crab-claw)" stroke-width="3" stroke-linecap="round"/>
  <path d="M42 88 L40 100" stroke="url(#crab-claw)" stroke-width="3" stroke-linecap="round"/>
  <!-- Legs right -->
  <path d="M86 82 L98 96" stroke="url(#crab-claw)" stroke-width="4" stroke-linecap="round"/>
  <path d="M82 86 L88 98" stroke="url(#crab-claw)" stroke-width="3" stroke-linecap="round"/>
  <path d="M78 88 L80 100" stroke="url(#crab-claw)" stroke-width="3" stroke-linecap="round"/>
</svg>
